# xmcd
#
# Track frame offsets:
#	150
#	10843
#	40392
#	62083
#	85087
#	112114
#	133398
#	159209
#	188323
#	212047
#	245689
#	273853
#	305819
#
# Disc length: 4655 seconds
# Revision: 0
# Processed by: cddbd v1.5.2PL0 Copyright (c) Steve Scherf et al.
# Submitted via: dBpowerAMP V12.0
#
DISCID=b2122d0d
DTITLE=New Order - Live At The London Troxy - 10 December 2011
DYEAR=2011
DGENRE=Alternative
TTITLE0=Elegia
TTITLE1=Crystal
TTITLE2=Regret
TTITLE3=Ceremony
TTITLE4=Age Of Consent
TTITLE5=Love Vigilantes
TTITLE6=Krafty
TTITLE7=1963
TTITLE8=Bizarre Love Triangle
TTITLE9=True Faith
TTITLE10=586
TTITLE11=The Perfect Kiss
TTITLE12=Temptation
EXTD=
EXTT0=
EXTT1=
EXTT2=
EXTT3=
EXTT4=
EXTT5=
EXTT6=
EXTT7=
EXTT8=
EXTT9=
EXTT10=
EXTT11=
EXTT12=
PLAYORDER=
